<svg xmlns="http://www.w3.org/2000/svg" viewBox="0 0 1272 470" width="1272" height="470">
  <style>
    :root {
      --champions-fill: #012169;
      --champions-outline: #000000;
      --champions-stroke: #000000;
    }
  </style>
  <g fill-rule="evenodd">
    <path d="M 990 63 L 989 117 L 991 121 L 1000 125 L 999 283 L 989 283 L 988 339 L 994 343 L 1059 367 L 1059 322 L 1064 321 L 1080 378 L 1126 398 L 1127 175 L 1141 175 L 1143 179 L 1143 262 L 1164 303 L 1207 328 L 1212 339 L 1212 380 L 1207 381 L 1192 371 L 1192 337 L 1158 317 L 1142 311 L 1143 376 L 1163 419 L 1230 459 L 1236 458 L 1261 433 L 1261 330 L 1241 285 L 1194 256 L 1192 251 L 1192 211 L 1198 209 L 1212 219 L 1212 250 L 1261 279 L 1261 217 L 1240 172 L 1172 134 L 1143 163 L 1139 163 L 1137 158 L 1137 118 L 1073 90 L 1068 90 L 1068 133 L 1063 134 L 1048 81 Z M 280 60 L 238 72 L 213 81 L 209 85 L 199 86 L 137 113 L 134 119 L 133 163 L 128 162 L 128 156 L 104 132 L 98 131 L 32 168 L 10 215 L 11 428 L 17 436 L 39 455 L 45 454 L 106 417 L 130 368 L 130 303 L 127 301 L 81 327 L 81 365 L 72 374 L 66 377 L 60 376 L 59 219 L 65 210 L 74 205 L 80 206 L 80 239 L 88 237 L 129 214 L 130 167 L 134 167 L 135 171 L 145 171 L 146 335 L 136 341 L 137 399 L 203 369 L 206 366 L 207 358 L 211 358 L 212 363 L 217 363 L 281 337 L 282 283 L 281 280 L 272 281 L 270 279 L 270 121 L 281 114 Z M 219 250 L 221 299 L 212 306 L 210 312 L 205 310 L 197 311 L 195 303 L 195 260 L 202 255 Z M 219 139 L 220 188 L 210 194 L 196 197 L 195 148 L 203 144 L 206 139 Z M 886 36 L 858 69 L 857 267 L 882 309 L 948 328 L 955 328 L 979 301 L 982 294 L 982 93 L 957 53 Z M 910 100 L 925 102 L 931 106 L 930 262 L 913 259 L 908 253 Z M 391 33 L 337 44 L 330 48 L 299 270 L 297 274 L 288 279 L 289 333 L 360 312 L 359 258 L 350 257 L 351 246 L 357 243 L 375 240 L 377 245 L 377 251 L 369 254 L 367 257 L 368 310 L 440 295 L 439 241 L 429 241 L 426 234 Z M 777 19 L 777 75 L 787 78 L 788 99 L 787 233 L 776 235 L 776 287 L 780 290 L 848 301 L 850 288 L 849 245 L 839 242 L 839 85 L 849 85 L 850 30 Z M 634 11 L 633 65 L 634 67 L 645 69 L 645 222 L 634 225 L 635 279 L 709 282 L 709 228 L 696 225 L 696 187 L 698 185 L 743 188 L 770 154 L 770 54 L 743 16 L 693 12 Z M 697 69 L 709 69 L 718 72 L 718 128 L 716 130 L 700 130 L 696 128 Z M 623 10 L 566 12 L 564 14 L 536 101 L 531 100 L 504 17 L 444 24 L 444 79 L 455 80 L 457 235 L 446 239 L 447 294 L 518 285 L 520 231 L 552 231 L 553 282 L 626 278 L 626 224 L 617 224 L 614 212 L 614 68 L 625 66 L 625 12 Z M 508 198 L 512 198 L 521 222 L 520 229 L 509 229 L 507 226 Z M 563 192 L 564 223 L 562 226 L 551 226 L 550 220 L 558 193 Z" fill="var(--champions-outline)" stroke="var(--champions-stroke)" stroke-width="2" />
    <path d="M 1171 146 L 1158 158 L 1151 168 L 1151 259 L 1169 295 L 1173 299 L 1201 314 L 1213 322 L 1217 327 L 1220 340 L 1219 392 L 1212 393 L 1187 378 L 1184 371 L 1183 342 L 1155 325 L 1152 325 L 1150 328 L 1151 374 L 1168 410 L 1173 415 L 1192 425 L 1224 446 L 1232 448 L 1247 436 L 1253 428 L 1254 337 L 1251 326 L 1236 293 L 1225 284 L 1194 267 L 1187 260 L 1184 252 L 1185 198 L 1187 196 L 1192 196 L 1215 209 L 1218 213 L 1220 221 L 1220 244 L 1223 248 L 1248 262 L 1253 261 L 1253 220 L 1238 185 L 1231 176 L 1180 147 Z M 100 143 L 94 143 L 41 172 L 37 176 L 19 214 L 19 424 L 28 435 L 40 444 L 47 443 L 99 411 L 102 408 L 121 367 L 121 317 L 117 316 L 90 332 L 89 367 L 86 373 L 81 378 L 60 390 L 54 390 L 51 386 L 50 217 L 54 208 L 58 204 L 81 191 L 86 191 L 88 194 L 88 221 L 90 224 L 95 223 L 118 210 L 120 206 L 120 165 L 117 158 Z M 1000 75 L 998 77 L 998 111 L 1008 119 L 1008 291 L 1006 295 L 1000 295 L 997 297 L 997 332 L 1000 336 L 1019 342 L 1046 354 L 1050 353 L 1050 315 L 1041 309 L 1040 304 L 1041 220 L 1046 219 L 1085 367 L 1090 373 L 1113 384 L 1118 384 L 1119 164 L 1121 161 L 1129 160 L 1129 125 L 1125 121 L 1083 103 L 1077 103 L 1076 105 L 1076 138 L 1079 142 L 1084 144 L 1086 148 L 1086 235 L 1081 236 L 1043 91 L 1037 86 Z M 270 72 L 265 72 L 258 76 L 222 87 L 219 90 L 218 122 L 219 126 L 226 126 L 228 128 L 228 193 L 225 197 L 192 210 L 188 210 L 186 207 L 186 143 L 196 135 L 196 101 L 186 101 L 147 118 L 143 122 L 143 156 L 152 157 L 154 161 L 155 337 L 153 341 L 144 348 L 144 383 L 146 385 L 153 383 L 196 361 L 197 325 L 189 324 L 186 320 L 186 256 L 194 249 L 221 238 L 228 239 L 229 305 L 220 313 L 220 350 L 225 350 L 268 333 L 272 329 L 272 295 L 262 292 L 261 282 L 262 241 L 260 155 L 261 115 L 272 108 L 272 74 Z M 891 46 L 885 49 L 869 68 L 866 74 L 866 266 L 885 299 L 889 302 L 911 307 L 945 318 L 953 318 L 970 299 L 974 290 L 974 96 L 955 64 L 950 60 Z M 904 90 L 912 90 L 932 95 L 937 99 L 939 104 L 939 268 L 935 272 L 927 272 L 910 267 L 903 262 L 900 255 L 900 96 Z M 382 44 L 342 52 L 338 55 L 316 204 L 315 222 L 309 253 L 307 277 L 303 282 L 297 285 L 298 321 L 346 308 L 351 303 L 350 271 L 340 269 L 342 241 L 348 236 L 374 230 L 381 230 L 383 232 L 386 257 L 376 264 L 376 296 L 378 299 L 429 289 L 431 286 L 430 253 L 422 251 L 418 241 L 385 47 Z M 364 116 L 371 149 L 376 191 L 370 194 L 351 197 L 349 195 L 349 188 L 358 131 L 359 117 Z M 789 29 L 785 32 L 785 65 L 796 71 L 796 241 L 794 244 L 787 244 L 784 246 L 785 280 L 790 283 L 839 290 L 841 287 L 841 256 L 839 252 L 833 251 L 830 247 L 830 79 L 833 74 L 839 74 L 841 72 L 841 39 L 838 36 Z M 645 20 L 642 23 L 642 56 L 645 59 L 651 59 L 653 61 L 653 231 L 643 235 L 643 269 L 645 271 L 699 273 L 701 270 L 701 239 L 699 236 L 691 235 L 688 232 L 687 180 L 690 176 L 740 178 L 759 155 L 761 150 L 760 54 L 740 26 L 736 24 Z M 690 60 L 720 61 L 727 69 L 727 129 L 725 135 L 720 139 L 692 138 L 687 133 L 687 64 Z M 614 20 L 574 21 L 570 23 L 537 131 L 533 131 L 530 126 L 498 29 L 483 28 L 456 31 L 453 33 L 453 67 L 455 69 L 461 69 L 464 74 L 465 241 L 462 245 L 458 245 L 455 248 L 455 282 L 457 284 L 507 278 L 510 275 L 510 243 L 508 240 L 501 239 L 499 237 L 498 230 L 498 141 L 502 141 L 504 144 L 529 220 L 531 222 L 537 222 L 542 217 L 566 140 L 572 140 L 572 232 L 561 237 L 561 271 L 564 273 L 616 270 L 617 236 L 616 234 L 609 233 L 606 230 L 605 62 L 608 58 L 613 58 L 616 56 L 616 22 Z" fill="var(--champions-fill)" />
  </g>
</svg>
