<?xml version="1.0" encoding="UTF-8"?>
<svg id="Layer_1" data-name="Layer 1" xmlns="http://www.w3.org/2000/svg" viewBox="0 0 611.15 310.89">
  <g id="text">
    <path d="M39.35,221.67h-3c-4.82,0-6.78,1.95-6.78,3.65,0,.65.52,2.48,1.17,4.17l22.28,57.98h.26l20.72-54.2c1.56-4.04,1.69-6.39,1.69-7.3,0-3.78-3.91-4.3-8.34-4.3h-2.21v-3.91c4.56,0,9.51.52,15.11.52,4.04,0,8.21-.52,11.99-.52v3.91h-1.3c-2.35,0-4.82.39-6.9,4.56-1.04,1.82-20.07,49.9-28.53,71.53-1.69,4.3-3.78,8.6-5.34,12.9h-4.82L12.25,229.09c-2.48-6.12-5.21-7.43-10.94-7.43H0v-3.91c6.64,0,13.42.52,20.07.52s15.5-.52,19.28-.52v3.91" fill="#00447c"/>
    <path d="M84.77,290.07c-1.3,4.43-2.87,7.82-2.87,10.16,0,3.91,5.47,4.56,9.77,4.56h1.43v3.91c-5.21-.26-10.55-.52-15.77-.52-4.69,0-9.38.26-14.07.52v-3.91h.78c5.08,0,9.38-3,11.34-8.47l20.85-59.81c1.69-4.82,4.04-11.33,4.82-16.16,4.17-1.43,9.38-4.04,11.86-5.6.39-.13.65-.26,1.04-.26s.65,0,.91.39c.39,1.04.78,2.22,1.17,3.26l23.97,68.14c1.56,4.56,3.13,9.38,4.82,13.29,1.56,3.65,4.3,5.21,8.6,5.21h.78v3.91c-5.86-.26-11.73-.52-17.98-.52s-12.9.26-19.54.52v-3.91h1.43c3,0,8.08-.52,8.08-3.78,0-1.69-1.17-5.21-2.61-9.38l-5.08-15.11h-29.58l-4.17,13.55M103.79,232.35h-.26l-12.12,36.87h24.36l-11.99-36.87Z" fill="#00447c"/>
    <path d="M181.84,295.94c0,5.21,3.65,6.78,7.82,7.3,5.34.39,11.2.39,17.2-.26,5.47-.65,10.16-3.78,12.51-7.04,2.09-2.87,3.26-6.51,4.04-9.38h3.78c-1.43,7.43-3.26,14.72-4.82,22.15-11.46,0-22.93-.52-34.4-.52s-22.93.52-34.4.52v-3.91h1.83c4.69,0,9.77-.65,9.77-8.73v-66.97c0-6.77-5.08-7.43-9.77-7.43h-1.83v-3.91c6.91,0,13.68.52,20.59.52s13.16-.52,19.8-.52v3.91h-3.26c-4.95,0-8.86.13-8.86,7.04v67.23" fill="#00447c"/>
    <path d="M266.54,248.16c-5.53,16.19-12.69,37.19-16.92,49.81v.02c-1.46,4.3-3.25,8.6-4.58,12.9h-4.13l-28.32-81.56c-2.12-6.12-4.46-7.43-9.36-7.43h-1.12v-3.91c5.69,0,11.48.52,17.17.52s13.27-.52,16.5-.52v3.91h-2.56c-4.13,0-5.8,1.96-5.8,3.65,0,.65.45,2.48,1.01,4.17l19.06,57.98h.27s15.96-47.84,15.96-47.84l-.04-.03-3.68-10.5c-2.12-6.12-4.46-7.43-9.37-7.43h-1.12v-3.91c5.69,0,11.48.52,17.17.52s13.27-.52,16.5-.52v3.91h-2.57c-4.13,0-5.8,1.96-5.8,3.65,0,.65.45,2.48,1.01,4.17l19.06,57.98h.22l17.73-54.2c1.34-4.04,1.45-6.38,1.45-7.3,0-3.78-3.34-4.3-7.14-4.3h-1.89v-3.91c3.9,0,8.14.52,12.93.52,3.46,0,7.02-.52,10.26-.52v3.91h-1.12c-2.01,0-4.12.39-5.91,4.56-.89,1.83-17.17,49.9-24.42,71.53-1.45,4.3-3.23,8.6-4.57,12.9h-4.13l-21.77-62.73" fill="#00447c"/>
    <path d="M366.85,215.8c27.75,0,49.9,17.2,49.9,44.95,0,29.97-21.5,49.9-49.25,49.9s-48.73-18.76-48.73-46.78,20.98-48.08,48.08-48.08M368.81,304.93c25.28,0,29.71-22.28,29.71-41.3s-10.29-42.08-31.92-42.08c-22.8,0-29.58,20.33-29.58,37.78,0,23.32,10.69,45.6,31.79,45.6Z" fill="#00447c"/>
    <path d="M470.31,215.8c27.75,0,49.9,17.2,49.9,44.95,0,29.97-21.5,49.9-49.25,49.9s-48.73-18.76-48.73-46.78,20.98-48.08,48.08-48.08M472.26,304.93c25.28,0,29.71-22.28,29.71-41.3s-10.29-42.08-31.92-42.08c-22.8,0-29.58,20.33-29.58,37.78,0,23.32,10.68,45.6,31.79,45.6Z" fill="#00447c"/>
    <path d="M517.6,304.79h1.82c4.69,0,9.64-.65,9.64-7.43v-68.28c0-6.77-4.95-7.43-9.64-7.43h-1.82v-3.91c3.91,0,12.51.52,20.85.52s15.37-.52,20.98-.52c32.05,0,51.73,17.98,51.73,45.21s-21.89,47.3-48.34,45.73c-5.73-.26-14.85-.52-23.71-.52s-18.11.52-21.5.52v-3.91M545.75,293.72c0,9.12,4.17,10.29,13.55,10.29,22.15,0,33.62-18.5,33.62-38.57,0-34.4-17.46-43-38.31-43-3,0-5.99.39-8.86.65v70.62Z" fill="#00447c"/>
  </g>
  <g id="icon-blue">
    <path d="M265.91,137.06c16.02,16.5,35.79,25.36,37.23,26l3.5,1.75,3.61-1.42c1.49-.59,29.93-13.36,40.26-27.85l-46.55-8.93-.27.03-35.16,10.33v-8.66s-2.62.83-2.62.83l-.02,7.27.02.64" fill="#00447c"/>
    <polyline points="303.64 52.56 342.67 60.35 348.13 58.63 303.55 49.76 263.59 61.5 268.32 62.83 303.64 52.56" fill="#00447c"/>
    <polyline points="283.11 68.63 286.15 67.71 286.14 75.09 283.12 75.92 283.11 68.63" fill="#00447c"/>
    <polyline points="283.09 77.5 286.11 76.68 286.15 83.93 283.1 84.85 283.09 77.5" fill="#00447c"/>
    <polyline points="283.1 86.6 286.18 85.63 286.15 92.99 283.1 93.82 283.1 86.6" fill="#00447c"/>
    <polyline points="287.07 67.54 290.11 66.62 290.09 74 287.08 74.83 287.07 67.54" fill="#00447c"/>
    <polyline points="287.04 76.41 290.06 75.6 290.11 82.84 287.06 83.76 287.04 76.41" fill="#00447c"/>
    <polyline points="287.06 85.51 290.13 84.54 290.11 91.91 287.06 92.73 287.06 85.51" fill="#00447c"/>
    <polyline points="320.17 66.95 317.35 66.4 317.31 73.72 320.16 74.31 320.17 66.95" fill="#00447c"/>
    <polyline points="324.37 67.76 321.55 67.22 321.51 74.53 324.43 75.13 324.37 67.76" fill="#00447c"/>
    <polyline points="271.59 101.84 278.49 99.69 278.46 69.95 271.69 71.98 271.59 101.84" fill="#00447c"/>
    <path d="M303.7,60.42l9.91,1.98s7.65-6.49,16.66,3.27h.02s6.99,1.4,6.99,1.4l5.37-1.59-10.98-2.19s-6.51-9.44-19.15-3.79l-8.8-1.74.02.02-8.11,2.41c-11.56-4.14-18.87,5.45-18.87,5.45l-8.35,2.49,3.25,1.58,5.98-1.85.85-.19c6.75-8.81,15.56-4.53,15.56-4.53l9.64-2.74" fill="#00447c"/>
    <polyline points="303.67 62.53 312.66 64.33 312.59 94.09 303.59 92.33 303.62 92.33 295.55 94.66 295.51 65.08 303.67 62.53" fill="#00447c"/>
    <polyline points="337.33 98.93 329.77 97.4 329.89 67.7 337.29 69.17 337.33 98.86 337.33 98.93" fill="#00447c"/>
    <polyline points="303.88 94.85 347.95 103.36 347.86 108.7 303.7 100.38 303.6 97.19 268.65 107.28 268.47 112.1 266.01 112.91 265.98 105.85 266.03 105.79 303.88 94.85" fill="#00447c"/>
    <polyline points="320.27 75.51 317.45 74.95 317.4 82.28 320.25 82.87 320.27 75.51" fill="#00447c"/>
    <polyline points="324.47 76.32 321.64 75.78 321.61 83.09 324.52 83.69 324.47 76.32" fill="#00447c"/>
    <polyline points="320.26 84.25 317.44 83.69 317.4 91.02 320.25 91.6 320.26 84.25" fill="#00447c"/>
    <polyline points="324.47 85.06 321.64 84.52 321.61 91.83 324.51 92.43 324.47 85.06" fill="#00447c"/>
    <path d="M303.6,43.37l44.66,8.84-35.5-22.58s-.15-3.48-3.05-4.77h-.07s-2.39-22.7-2.39-22.7c.1-.05.68-.41.61-1.02-.08-.63-.53-1.14-1.16-1.13-.64,0-1.14.53-1.13,1.16,0,.5.26.88.7,1.03l-1.83,22.85c-1.86.92-3.16,2.69-3.03,4.73l-37.98,25.17,40.18-11.57" fill="#00447c"/>
    <polyline points="268.52 128.32 304.05 118.43 346.8 126.51 346.71 110.02 303.77 101.77 268.47 112.1 268.47 111.75 268.52 128.32" fill="#00447c"/>
    <polyline points="303.79 125.27 303.71 119.74 348.22 128.08 348.2 133.61 303.79 125.27" fill="#00447c"/>
  </g>
  <g id="icon-orange">
    <path d="M367.9,119.05c.19-.68.26-1.03.42-1.71,6.06-26.66,4.38-78.11,3.98-88.15l-.2-4.48-2.24-1.31c-.83-.47-1.78-.94-2.42-1.24-6.47-3.04-24.57-9.94-56.69-10.45l.54,5.27c30.65.58,47.79,7.09,53.9,9.96.66.31,1.28.62,1.77.89l.07,1.58c.4,9.93,2.06,60.75-3.86,86.77-7.26,31.94-52.48,49.89-56.29,51.35-3.72-1.71-47.39-22.23-55.88-49.8-.16-.52-.31-1.04-.45-1.56-.3-1.15-.58-2.4-.87-3.8-5.92-28.64-3.2-79.54-2.92-84.53,2.37-1.31,19.75-10.21,55.92-10.85l.42-5.28c-40.09.6-58.48,11.27-59.27,11.73l-2.17,1.27-.15,2.49c-.13,2.28-3.24,56.07,3,86.24.31,1.48.61,2.8.93,4.04.14.54.29.97.45,1.51-95.19,4.3-176.48,18.48-226.7,38.21,53.56-11.61,137.39-20.02,235.17-22.3,16.73,22.08,48.88,36.78,50.54,37.53l1.8.81,1.85-.7c1.73-.65,35.39-13.43,51.87-37.62,95.06,2.38,179.16,11.12,233.42,21.93-50.58-18.79-132.6-33.27-225.94-37.78Z" fill="#f47721"/>
    <path d="M311.44,18.83c28.17.64,44.09,6.84,49.81,9.59,1.34.64,2.03,1.06,2.11,1.1l1.18.71.14,3.19c.36,9.34,1.89,57.17-3.59,81.85-7.14,32.12-51.57,49.53-53.46,50.26l-1.02.39-.99-.46c-1.81-.84-44.51-20.84-52.84-48.52-.16-.53-.31-1.06-.45-1.6-.29-1.18-.57-2.42-.83-3.69-5.64-27.9-2.83-77.95-2.7-80.07l.08-1.36,1.17-.7c.7-.42,17.04-10.01,52.57-10.7l-.1,1.32c-35.09.7-51.1,10.1-51.78,10.51l-.57.34-.04.67c-.12,2.11-2.93,52,2.68,79.73.25,1.26.52,2.47.81,3.63.13.51.28,1.03.43,1.54,8.16,27.12,50.34,46.88,52.13,47.7l.48.22.5-.19c1.86-.71,45.66-17.87,52.64-49.31,5.45-24.52,3.93-72.2,3.56-81.51l-.11-2.48-.58-.35s-.69-.42-2-1.04c-5.62-2.7-21.27-8.8-49.05-9.45l-.18-1.32" fill="#f47721"/>
  </g>
</svg>